<svg width="223" height="140" viewBox="0 0 223 140" fill="none" xmlns="http://www.w3.org/2000/svg">
<path d="M1.05469 20.9297V18.6797L13.5 12.4219V16.9922L7.3125 19.7344L13.5 22.7578V27.2227L1.05469 20.9297ZM196.777 70.7031L202.93 44.7227H206.48L200.363 70.7031H196.777ZM209.293 67.2227V63.6367L216.816 59.7344L209.293 56.0781V52.4219L221.738 58.8203V60.7539L209.293 67.2227Z" fill="#1B6EDB"/>
<path d="M29.4794 11.92V16.464H36.8074V20.688H29.4794V25.616H37.7674V30H24.0074V7.536H37.7674V11.92H29.4794ZM46.7919 6.32V30H41.3199V6.32H46.7919ZM53.5094 10.288C52.5494 10.288 51.7601 10.0107 51.1414 9.456C50.5441 8.88 50.2454 8.176 50.2454 7.344C50.2454 6.49067 50.5441 5.78667 51.1414 5.232C51.7601 4.656 52.5494 4.368 53.5094 4.368C54.4481 4.368 55.2161 4.656 55.8134 5.232C56.4321 5.78667 56.7414 6.49067 56.7414 7.344C56.7414 8.176 56.4321 8.88 55.8134 9.456C55.2161 10.0107 54.4481 10.288 53.5094 10.288ZM56.2294 12.144V30H50.7574V12.144H56.2294ZM71.0749 11.952C73.1656 11.952 74.8296 12.6347 76.0669 14C77.3256 15.344 77.9549 17.2 77.9549 19.568V30H72.5149V20.304C72.5149 19.1093 72.2056 18.1813 71.5869 17.52C70.9683 16.8587 70.1363 16.528 69.0909 16.528C68.0456 16.528 67.2136 16.8587 66.5949 17.52C65.9763 18.1813 65.6669 19.1093 65.6669 20.304V30H60.1949V12.144H65.6669V14.512C66.2216 13.7227 66.9683 13.104 67.9069 12.656C68.8456 12.1867 69.9016 11.952 71.0749 11.952ZM104.699 7.536V11.92H98.7467V30H93.2747V11.92H87.3227V7.536H104.699ZM118.421 11.952C120.469 11.952 122.112 12.6347 123.349 14C124.586 15.344 125.205 17.2 125.205 19.568V30H119.765V20.304C119.765 19.1093 119.456 18.1813 118.837 17.52C118.218 16.8587 117.386 16.528 116.341 16.528C115.296 16.528 114.464 16.8587 113.845 17.52C113.226 18.1813 112.917 19.1093 112.917 20.304V30H107.445V6.32H112.917V14.544C113.472 13.7547 114.229 13.1253 115.189 12.656C116.149 12.1867 117.226 11.952 118.421 11.952ZM137.135 30.256C135.386 30.256 133.807 29.8827 132.399 29.136C131.013 28.3893 129.914 27.3227 129.103 25.936C128.314 24.5493 127.919 22.928 127.919 21.072C127.919 19.2373 128.325 17.6267 129.135 16.24C129.946 14.832 131.055 13.7547 132.463 13.008C133.871 12.2613 135.45 11.888 137.199 11.888C138.949 11.888 140.527 12.2613 141.935 13.008C143.343 13.7547 144.453 14.832 145.263 16.24C146.074 17.6267 146.479 19.2373 146.479 21.072C146.479 22.9067 146.063 24.528 145.231 25.936C144.421 27.3227 143.301 28.3893 141.871 29.136C140.463 29.8827 138.885 30.256 137.135 30.256ZM137.135 25.52C138.181 25.52 139.066 25.136 139.791 24.368C140.538 23.6 140.911 22.5013 140.911 21.072C140.911 19.6427 140.549 18.544 139.823 17.776C139.119 17.008 138.245 16.624 137.199 16.624C136.133 16.624 135.247 17.008 134.543 17.776C133.839 18.5227 133.487 19.6213 133.487 21.072C133.487 22.5013 133.829 23.6 134.511 24.368C135.215 25.136 136.09 25.52 137.135 25.52ZM166.214 20.784C166.214 21.296 166.182 21.8293 166.118 22.384H153.734C153.82 23.4933 154.172 24.3467 154.79 24.944C155.43 25.52 156.209 25.808 157.126 25.808C158.492 25.808 159.441 25.232 159.974 24.08H165.798C165.5 25.2533 164.956 26.3093 164.166 27.248C163.398 28.1867 162.428 28.9227 161.254 29.456C160.081 29.9893 158.769 30.256 157.318 30.256C155.569 30.256 154.012 29.8827 152.646 29.136C151.281 28.3893 150.214 27.3227 149.446 25.936C148.678 24.5493 148.294 22.928 148.294 21.072C148.294 19.216 148.668 17.5947 149.414 16.208C150.182 14.8213 151.249 13.7547 152.614 13.008C153.98 12.2613 155.548 11.888 157.318 11.888C159.046 11.888 160.582 12.2507 161.926 12.976C163.27 13.7013 164.316 14.736 165.062 16.08C165.83 17.424 166.214 18.992 166.214 20.784ZM160.614 19.344C160.614 18.4053 160.294 17.6587 159.654 17.104C159.014 16.5493 158.214 16.272 157.254 16.272C156.337 16.272 155.558 16.5387 154.918 17.072C154.3 17.6053 153.916 18.3627 153.766 19.344H160.614ZM179.981 11.952C182.072 11.952 183.736 12.6347 184.973 14C186.232 15.344 186.861 17.2 186.861 19.568V30H181.421V20.304C181.421 19.1093 181.112 18.1813 180.493 17.52C179.875 16.8587 179.043 16.528 177.997 16.528C176.952 16.528 176.12 16.8587 175.501 17.52C174.883 18.1813 174.573 19.1093 174.573 20.304V30H169.101V12.144H174.573V14.512C175.128 13.7227 175.875 13.104 176.813 12.656C177.752 12.1867 178.808 11.952 179.981 11.952ZM36.4078 47.536V62.832C36.4078 65.2 35.7358 67.024 34.3918 68.304C33.0691 69.584 31.2771 70.224 29.0158 70.224C26.6478 70.224 24.7491 69.552 23.3198 68.208C21.8904 66.864 21.1758 64.9547 21.1758 62.48H26.6158C26.6158 63.4187 26.8078 64.1333 27.1918 64.624C27.5758 65.0933 28.1304 65.328 28.8558 65.328C29.5171 65.328 30.0291 65.1147 30.3918 64.688C30.7544 64.2613 30.9358 63.6427 30.9358 62.832V47.536H36.4078ZM39.7398 61.04C39.7398 59.2053 40.0811 57.5947 40.7638 56.208C41.4678 54.8213 42.4171 53.7547 43.6118 53.008C44.8064 52.2613 46.1398 51.888 47.6118 51.888C48.8704 51.888 49.9691 52.144 50.9078 52.656C51.8678 53.168 52.6038 53.84 53.1158 54.672V52.144H58.5878V70H53.1158V67.472C52.5824 68.304 51.8358 68.976 50.8758 69.488C49.9371 70 48.8384 70.256 47.5798 70.256C46.1291 70.256 44.8064 69.8827 43.6118 69.136C42.4171 68.368 41.4678 67.2907 40.7638 65.904C40.0811 64.496 39.7398 62.8747 39.7398 61.04ZM53.1158 61.072C53.1158 59.7067 52.7318 58.6293 51.9638 57.84C51.2171 57.0507 50.2998 56.656 49.2118 56.656C48.1238 56.656 47.1958 57.0507 46.4278 57.84C45.6811 58.608 45.3078 59.6747 45.3078 61.04C45.3078 62.4053 45.6811 63.4933 46.4278 64.304C47.1958 65.0933 48.1238 65.488 49.2118 65.488C50.2998 65.488 51.2171 65.0933 51.9638 64.304C52.7318 63.5147 53.1158 62.4373 53.1158 61.072ZM73.4585 70L68.0185 62.512V70H62.5465V46.32H68.0185V59.408L73.4265 52.144H80.1785L72.7545 61.104L80.2425 70H73.4585ZM90.4558 70.256C88.7064 70.256 87.1278 69.8827 85.7198 69.136C84.3331 68.3893 83.2344 67.3227 82.4238 65.936C81.6344 64.5493 81.2398 62.928 81.2398 61.072C81.2398 59.2373 81.6451 57.6267 82.4557 56.24C83.2664 54.832 84.3758 53.7547 85.7838 53.008C87.1918 52.2613 88.7704 51.888 90.5198 51.888C92.2691 51.888 93.8478 52.2613 95.2558 53.008C96.6638 53.7547 97.7731 54.832 98.5838 56.24C99.3944 57.6267 99.7998 59.2373 99.7998 61.072C99.7998 62.9067 99.3838 64.528 98.5518 65.936C97.7411 67.3227 96.6211 68.3893 95.1918 69.136C93.7838 69.8827 92.2051 70.256 90.4558 70.256ZM90.4558 65.52C91.5011 65.52 92.3864 65.136 93.1118 64.368C93.8584 63.6 94.2318 62.5013 94.2318 61.072C94.2318 59.6427 93.8691 58.544 93.1438 57.776C92.4398 57.008 91.5651 56.624 90.5198 56.624C89.4531 56.624 88.5678 57.008 87.8638 57.776C87.1598 58.5227 86.8078 59.6213 86.8078 61.072C86.8078 62.5013 87.1491 63.6 87.8318 64.368C88.5358 65.136 89.4104 65.52 90.4558 65.52ZM108.175 54.672C108.687 53.84 109.423 53.168 110.383 52.656C111.343 52.144 112.441 51.888 113.679 51.888C115.151 51.888 116.484 52.2613 117.679 53.008C118.873 53.7547 119.812 54.8213 120.495 56.208C121.199 57.5947 121.551 59.2053 121.551 61.04C121.551 62.8747 121.199 64.496 120.495 65.904C119.812 67.2907 118.873 68.368 117.679 69.136C116.484 69.8827 115.151 70.256 113.679 70.256C112.42 70.256 111.321 70.0107 110.383 69.52C109.444 69.008 108.708 68.336 108.175 67.504V70H102.703V46.32H108.175V54.672ZM115.983 61.04C115.983 59.6747 115.599 58.608 114.831 57.84C114.084 57.0507 113.156 56.656 112.047 56.656C110.959 56.656 110.031 57.0507 109.263 57.84C108.516 58.6293 108.143 59.7067 108.143 61.072C108.143 62.4373 108.516 63.5147 109.263 64.304C110.031 65.0933 110.959 65.488 112.047 65.488C113.135 65.488 114.063 65.0933 114.831 64.304C115.599 63.4933 115.983 62.4053 115.983 61.04ZM131.686 70.256C130.128 70.256 128.742 69.9893 127.526 69.456C126.31 68.9227 125.35 68.1973 124.646 67.28C123.942 66.3413 123.547 65.296 123.462 64.144H128.87C128.934 64.7627 129.222 65.264 129.734 65.648C130.246 66.032 130.875 66.224 131.622 66.224C132.304 66.224 132.827 66.096 133.19 65.84C133.574 65.5627 133.766 65.2107 133.766 64.784C133.766 64.272 133.499 63.8987 132.966 63.664C132.432 63.408 131.568 63.1307 130.374 62.832C129.094 62.5333 128.027 62.224 127.174 61.904C126.32 61.5627 125.584 61.04 124.966 60.336C124.347 59.6107 124.038 58.64 124.038 57.424C124.038 56.4 124.315 55.472 124.87 54.64C125.446 53.7867 126.278 53.1147 127.366 52.624C128.475 52.1333 129.787 51.888 131.302 51.888C133.542 51.888 135.302 52.4427 136.582 53.552C137.883 54.6613 138.63 56.1333 138.822 57.968H133.766C133.68 57.3493 133.403 56.8587 132.934 56.496C132.486 56.1333 131.888 55.952 131.142 55.952C130.502 55.952 130.011 56.08 129.67 56.336C129.328 56.5707 129.158 56.9013 129.158 57.328C129.158 57.84 129.424 58.224 129.958 58.48C130.512 58.736 131.366 58.992 132.518 59.248C133.84 59.5893 134.918 59.9307 135.75 60.272C136.582 60.592 137.307 61.1253 137.926 61.872C138.566 62.5973 138.896 63.5787 138.918 64.816C138.918 65.8613 138.619 66.8 138.022 67.632C137.446 68.4427 136.603 69.0827 135.494 69.552C134.406 70.0213 133.136 70.256 131.686 70.256ZM159.097 60.784C159.097 61.296 159.065 61.8293 159.001 62.384H146.617C146.703 63.4933 147.055 64.3467 147.673 64.944C148.313 65.52 149.092 65.808 150.009 65.808C151.375 65.808 152.324 65.232 152.857 64.08H158.681C158.383 65.2533 157.839 66.3093 157.049 67.248C156.281 68.1867 155.311 68.9227 154.137 69.456C152.964 69.9893 151.652 70.256 150.201 70.256C148.452 70.256 146.895 69.8827 145.529 69.136C144.164 68.3893 143.097 67.3227 142.329 65.936C141.561 64.5493 141.177 62.928 141.177 61.072C141.177 59.216 141.551 57.5947 142.297 56.208C143.065 54.8213 144.132 53.7547 145.497 53.008C146.863 52.2613 148.431 51.888 150.201 51.888C151.929 51.888 153.465 52.2507 154.809 52.976C156.153 53.7013 157.199 54.736 157.945 56.08C158.713 57.424 159.097 58.992 159.097 60.784ZM153.497 59.344C153.497 58.4053 153.177 57.6587 152.537 57.104C151.897 56.5493 151.097 56.272 150.137 56.272C149.22 56.272 148.441 56.5387 147.801 57.072C147.183 57.6053 146.799 58.3627 146.649 59.344H153.497ZM172.864 51.952C174.955 51.952 176.619 52.6347 177.856 54C179.115 55.344 179.744 57.2 179.744 59.568V70H174.304V60.304C174.304 59.1093 173.995 58.1813 173.376 57.52C172.757 56.8587 171.925 56.528 170.88 56.528C169.835 56.528 169.003 56.8587 168.384 57.52C167.765 58.1813 167.456 59.1093 167.456 60.304V70H161.984V52.144H167.456V54.512C168.011 53.7227 168.757 53.104 169.696 52.656C170.635 52.1867 171.691 51.952 172.864 51.952Z" fill="#4E4B4B"/>
<path d="M118.48 133.2L112.901 127.621L111.197 129.324C109.454 131.069 108.582 131.941 107.644 131.735C106.706 131.53 106.279 130.371 105.427 128.057L102.583 120.337C100.882 115.72 100.029 113.412 101.219 112.222C102.409 111.032 104.718 111.882 109.337 113.585L117.057 116.427C119.371 117.279 120.528 117.706 120.735 118.644C120.942 119.582 120.069 120.453 118.324 122.197L116.621 123.901L122.2 129.48C122.778 130.058 123.067 130.347 123.2 130.67C123.377 131.099 123.377 131.581 123.2 132.011C123.067 132.333 122.778 132.622 122.2 133.2C121.622 133.778 121.333 134.067 121.01 134.2C120.58 134.378 120.098 134.378 119.668 134.2C119.347 134.067 119.059 133.778 118.48 133.2Z" fill="black"/>
</svg>
